HIERARCHY
ROOT Hips
{
	OFFSET 0.000000 0.000000 0.000000
	CHANNELS 6 Xposition Yposition Zposition Zrotation Xrotation Yrotation
	JOINT Spine
	{
		OFFSET 0.000000 0.000000 -0.744707
		CHANNELS 3 Zrotation Xrotation Yrotation
		JOINT Spine1
		{
			OFFSET 0.000000 0.000000 -2.032240
			CHANNELS 3 Zrotation Xrotation Yrotation
			JOINT Neck
			{
				OFFSET 0.000000 0.000000 -2.213880
				CHANNELS 3 Zrotation Xrotation Yrotation
				JOINT Head
				{
					OFFSET 0.000000 0.181636 -1.407680
					CHANNELS 3 Zrotation Xrotation Yrotation
					End Site
					{
						OFFSET 0.000000 0.000000 -1.816356
					}
				}
			}
			JOINT LeftShoulder
			{
				OFFSET 0.365767 -0.048012 -1.787590
				CHANNELS 3 Zrotation Xrotation Yrotation
				JOINT LeftArm
				{
					OFFSET 1.305160 0.000000 0.000000
					CHANNELS 3 Zrotation Xrotation Yrotation
					JOINT LeftForeArm
					{
						OFFSET 2.559210 0.000000 0.000000
						CHANNELS 3 Zrotation Xrotation Yrotation
						JOINT LeftHand
						{
							OFFSET 2.378450 0.000000 0.000000
							CHANNELS 3 Zrotation Xrotation Yrotation
							End Site
							{
								OFFSET 1.362267 0.000000 0.000000
							}
						}
					}
				}
			}
			JOINT RightShoulder
			{
				OFFSET -0.360721 -0.048012 -1.787590
				CHANNELS 3 Zrotation Xrotation Yrotation
				JOINT RightArm
				{
					OFFSET -1.305160 0.000000 0.000000
					CHANNELS 3 Zrotation Xrotation Yrotation
					JOINT RightForeArm
					{
						OFFSET -2.559210 0.000000 0.000000
						CHANNELS 3 Zrotation Xrotation Yrotation
						JOINT RightHand
						{
							OFFSET -2.378450 0.000000 0.000000
							CHANNELS 3 Zrotation Xrotation Yrotation
							End Site
							{
								OFFSET -1.362267 0.000000 0.000000
							}
						}
					}
				}
			}
		}
	}
	JOINT LeftUpLeg
	{
		OFFSET 0.908180 0.000000 0.000000
		CHANNELS 3 Zrotation Xrotation Yrotation
		JOINT LeftLeg
		{
			OFFSET 0.000000 -0.000003 3.819490
			CHANNELS 3 Zrotation Xrotation Yrotation
			JOINT LeftFoot
			{
				OFFSET 0.000000 -0.000003 4.004300
				CHANNELS 3 Zrotation Xrotation Yrotation
				JOINT LeftToeBase
				{
					OFFSET 0.000000 1.362270 0.590317
					CHANNELS 3 Zrotation Xrotation Yrotation
					End Site
					{
						OFFSET 0.000000 0.363271 0.000000
					}
				}
			}
		}
	}
	JOINT RightUpLeg
	{
		OFFSET -0.908180 0.000000 0.000000
		CHANNELS 3 Zrotation Xrotation Yrotation
		JOINT RightLeg
		{
			OFFSET 0.000000 -0.000003 3.819490
			CHANNELS 3 Zrotation Xrotation Yrotation
			JOINT RightFoot
			{
				OFFSET 0.000000 -0.000003 4.004300
				CHANNELS 3 Zrotation Xrotation Yrotation
				JOINT RightToeBase
				{
					OFFSET 0.000000 1.362270 0.590317
					CHANNELS 3 Zrotation Xrotation Yrotation
					End Site
					{
						OFFSET 0.000000 0.363271 0.000000
					}
				}
			}
		}
	}
}
MOTION
Frames: 15
Frame Time: 0.016667
-1.660254 1.982770 -7.952991 2.574261 7.387491 -0.659343 -11.574603 -21.485400 -5.798343 -5.561169 20.883983 11.185960 2.244893 0.468342 7.018643 1.341049 7.368832 -1.428940 -0.709642 -2.997895 13.393591 13.175764 3.036358 -48.707643 78.187798 -8.099569 31.245879 -20.097338 -34.166382 9.952077 -7.888489 -4.459746 -7.991289 -36.537807 -15.407578 43.278169 -79.538735 36.876628 -58.683933 0.687287 -18.440485 -56.571995 -1.894516 -9.050683 0.920583 -5.023892 10.451527 3.277411 -22.023443 -4.743369 1.669755 0.000000 0.000001 0.000001 -7.117994 -18.725090 -19.252642 -16.422944 19.852295 11.138956 47.860198 1.403146 3.182209 0.000005 0.000003 -0.000003 
-1.642591 1.976746 -7.954000 2.727956 7.366377 -0.680491 -11.403189 -21.446652 -5.642895 -5.466609 20.812474 10.967391 2.001117 0.689488 7.200112 1.057509 7.185277 -1.650413 -0.375707 -3.214040 13.329614 12.175809 1.083072 -48.187333 77.875932 -7.861046 32.100325 -19.710439 -34.905859 13.017029 -7.769235 -4.294551 -7.917263 -36.429982 -15.616548 43.819857 -79.699729 36.959571 -58.171608 0.873694 -17.942705 -56.656334 -1.934206 -9.131076 0.820511 -5.353507 10.583335 3.312267 -21.817967 -4.796926 1.710658 -0.000005 -0.000001 -0.000000 -7.534651 -18.840168 -19.232472 -15.977645 20.286811 11.364756 47.970935 0.520068 3.251429 0.000004 0.000006 0.000000 
-1.626782 1.970096 -7.955175 2.857175 7.312683 -0.713208 -11.177589 -21.366893 -5.487204 -5.362210 20.749859 10.783580 1.722791 0.913281 7.326371 0.747792 6.975552 -1.831395 -0.006501 -3.525584 13.291192 11.356198 -0.518563 -47.708479 77.601659 -7.627304 33.132729 -19.265845 -35.772142 16.105832 -7.707898 -4.175234 -7.878847 -36.479456 -15.537099 44.355563 -79.511113 37.059042 -58.039444 1.064658 -17.534417 -56.849181 -1.814094 -9.213965 0.871154 -5.330957 10.824548 3.090858 -22.026469 -4.915448 1.817109 0.000007 0.000001 0.000000 -7.964458 -18.886352 -19.172414 -15.399787 20.699467 11.508935 47.942150 -0.144361 3.465377 -0.000003 0.000006 -0.000001 
-1.611688 1.964398 -7.956424 2.971319 7.267787 -0.748201 -10.916776 -21.308918 -5.313701 -5.243370 20.686674 10.580570 1.426882 1.155818 7.486176 0.411264 6.772705 -2.095277 0.289514 -3.749712 13.247488 10.572621 -2.196634 -47.079818 77.303876 -7.538627 33.897672 -18.767552 -36.531523 19.341279 -7.607857 -3.974135 -7.828829 -36.572115 -15.519802 44.816030 -79.443713 37.063813 -57.735944 1.113673 -17.081687 -57.103240 -1.828636 -9.309132 0.885152 -5.295289 11.056958 2.926261 -22.140611 -5.009048 1.884269 0.000001 0.000002 0.000000 -8.367266 -18.893014 -19.098980 -15.262012 20.991620 11.699858 47.939957 -0.696210 3.511539 0.000004 0.000005 -0.000000 
-1.597036 1.959503 -7.957079 3.084446 7.193520 -0.777865 -10.637937 -21.195230 -5.149826 -5.119774 20.578308 10.405114 1.113116 1.395294 7.648195 0.054241 6.605631 -2.400433 0.615316 -4.017968 13.249363 9.803382 -3.690893 -46.439945 76.874469 -7.382941 34.548620 -18.277677 -37.045536 22.405952 -7.459349 -3.765094 -7.749272 -36.840073 -15.300814 45.200505 -79.099512 37.130367 -57.643955 1.465995 -16.679665 -57.146113 -1.997719 -9.362805 0.839608 -5.426134 11.246368 2.882744 -21.962509 -5.101314 1.950541 -0.000006 0.000001 -0.000000 -8.713996 -18.879220 -19.014113 -15.200031 21.289017 12.008780 47.982864 -1.371905 3.542573 0.000003 0.000005 0.000000 
-1.583374 1.955321 -7.957636 3.178138 7.115692 -0.795503 -10.325205 -21.102105 -5.008041 -4.994731 20.510276 10.271402 0.777039 1.616036 7.742559 -0.317432 6.445631 -2.674023 0.921240 -4.282157 13.225515 9.295383 -4.884582 -45.712909 76.350682 -7.183562 35.382518 -17.381421 -37.587057 26.012574 -7.400759 -3.586223 -7.740089 -37.189052 -14.998979 45.523197 -78.557865 37.159019 -57.766434 1.605510 -16.280364 -57.541612 -2.219239 -9.428384 0.745570 -5.623707 11.448983 2.940749 -21.674775 -5.170287 1.947129 -0.000000 0.000004 -0.000000 -9.053517 -18.843679 -18.932914 -15.367839 21.460734 12.236245 47.962227 -1.878338 3.192209 -0.000009 0.000003 0.000001 
-1.570978 1.951320 -7.957819 3.266456 7.072506 -0.799875 -10.022059 -21.031549 -4.885150 -4.866077 20.418552 10.119466 0.472472 1.877178 7.927451 -0.675761 6.259146 -3.117682 1.239557 -4.571213 13.259333 8.766196 -5.997245 -44.889332 75.602128 -6.919906 35.931385 -16.289257 -37.707275 29.851215 -7.346794 -3.435189 -7.691090 -37.362118 -14.632325 45.913484 -78.211670 37.211680 -57.616593 1.848183 -15.776704 -57.828377 -2.294674 -9.507299 0.752586 -5.708991 11.660129 2.790213 -21.587404 -5.283206 2.014040 -0.000000 0.000004 0.000001 -9.332932 -18.849753 -18.828161 -16.082372 21.652391 12.668859 48.219155 -2.618281 2.807309 -0.000002 0.000004 0.000001 
-1.559341 1.947053 -7.957623 3.352866 7.053672 -0.803281 -9.733752 -20.946590 -4.799714 -4.745951 20.265605 10.028782 0.155399 2.120606 8.057512 -1.037943 6.111249 -3.515611 1.576416 -4.859604 13.315331 8.289380 -6.947546 -44.036412 74.694409 -6.585307 36.436071 -15.334999 -37.581501 33.166910 -7.216385 -3.192293 -7.676316 -37.685886 -14.180081 46.233571 -77.822397 37.242532 -57.563140 2.125199 -15.394942 -57.896392 -2.371748 -9.627420 0.774285 -5.675056 11.928332 2.624400 -21.531020 -5.418415 2.086268 -0.000001 -0.000005 -0.000002 -9.620098 -18.886873 -18.735848 -16.885660 21.780519 13.049201 48.469963 -3.215844 2.661733 0.000003 0.000006 0.000001 
-1.548185 1.943812 -7.956625 3.420248 7.027526 -0.781560 -9.437038 -20.867312 -4.761287 -4.631889 20.132840 9.993637 -0.183873 2.364010 8.165392 -1.420441 5.949240 -3.907582 1.836492 -5.096703 13.352664 7.974045 -7.814352 -43.057461 73.500916 -6.143126 36.821826 -14.182376 -37.128048 37.110624 -7.101367 -2.988176 -7.651439 -38.023885 -13.598684 46.481213 -77.328294 37.277390 -57.572477 2.407581 -14.980043 -57.915032 -2.624730 -9.745062 0.719326 -5.643222 12.188116 2.519761 -21.409892 -5.565529 2.046187 -0.000003 0.000003 0.000001 -9.760791 -19.021003 -18.611526 -17.746336 22.043085 13.367495 48.603431 -3.673540 2.466527 0.000001 0.000004 -0.000000 
-1.537961 1.940383 -7.955695 3.476002 7.053912 -0.743447 -9.162911 -20.791683 -4.747255 -4.527539 19.983735 9.984378 -0.473329 2.453591 8.217111 -1.752426 5.922245 -4.305667 2.019269 -5.446394 13.348090 7.852509 -8.460210 -41.982844 72.162328 -5.749638 37.179431 -12.823174 -36.506733 41.108624 -6.848274 -2.853308 -7.684817 -38.316210 -13.097615 46.788343 -77.228935 37.268169 -57.135929 2.710075 -14.502334 -57.845514 -2.820810 -9.941585 0.695901 -5.527742 12.511830 2.341951 -21.336282 -5.718666 2.076593 0.000001 0.000002 -0.000002 -9.941921 -19.097402 -18.530245 -18.616121 22.101809 13.618012 48.840777 -4.021034 2.590456 0.000004 0.000005 0.000001 
-1.527944 1.937238 -7.954072 3.533581 7.072862 -0.687110 -8.895881 -20.724128 -4.750519 -4.417493 19.828801 9.943379 -0.787326 2.623196 8.344688 -2.114969 5.855320 -4.721907 2.234894 -5.736382 13.475471 7.684375 -9.029355 -40.974271 70.561619 -5.188596 37.452430 -11.823918 -35.530562 44.241543 -6.659848 -2.678070 -7.599270 -38.623603 -12.447218 46.943050 -77.049110 37.220938 -56.818735 2.957467 -14.108603 -57.756708 -2.957480 -10.115223 0.650838 -5.334239 12.817453 2.148896 -21.424321 -5.891784 2.195753 -0.000001 0.000002 0.000000 -10.048409 -19.170732 -18.461738 -19.491792 22.124438 13.826916 48.992889 -4.367726 2.661332 -0.000003 0.000003 -0.000001 
-1.518428 1.934894 -7.952178 3.572582 7.094439 -0.603219 -8.637473 -20.671206 -4.781465 -4.310494 19.660969 9.916455 -1.093414 2.874523 8.437491 -2.458865 5.719689 -5.108289 2.448000 -5.971452 13.635474 7.632187 -9.437256 -39.937810 68.761850 -4.630142 37.748533 -10.904680 -34.407232 46.797547 -6.530553 -2.441283 -7.544483 -38.658905 -11.888341 47.053771 -77.256140 37.128471 -56.066147 3.172999 -13.631800 -57.701821 -2.986856 -10.289694 0.630092 -5.122194 13.138985 1.858287 -21.641927 -6.057961 2.259844 0.000000 0.000004 -0.000000 -10.072791 -19.229026 -18.430729 -20.112353 22.109773 13.935282 48.982159 -4.651126 2.671447 -0.000002 0.000001 0.000001 
-1.509776 1.931755 -7.950444 3.631530 7.136179 -0.542809 -8.413968 -20.599989 -4.803464 -4.221080 19.442697 9.944767 -1.375769 3.086114 8.502048 -2.779960 5.637840 -5.544435 2.659318 -6.210766 13.760843 7.658520 -9.674413 -38.854067 66.827616 -4.137504 38.025080 -9.735353 -33.131690 49.424376 -6.308532 -2.191864 -7.534108 -38.908982 -11.182229 47.129661 -77.084101 37.077033 -55.684261 3.472909 -13.204344 -57.400855 -3.263067 -10.523155 0.495633 -5.149616 13.472913 1.861306 -21.485864 -6.174482 2.233579 -0.000000 0.000001 -0.000001 -10.141244 -19.255987 -18.373200 -20.585775 22.025492 13.873354 48.835829 -4.881127 2.636120 -0.000003 0.000003 -0.000002 
-1.501208 1.929141 -7.947845 3.679952 7.168710 -0.466026 -8.183032 -20.524409 -4.829597 -4.131309 19.240247 9.978847 -1.663505 3.293879 8.545659 -3.103028 5.556451 -5.960977 2.810127 -6.407931 13.884153 7.671426 -9.957431 -37.744267 64.940230 -3.781279 38.095209 -9.047770 -31.937985 51.279032 -6.116599 -1.935658 -7.490662 -38.941514 -10.635299 47.137021 -77.299136 36.970455 -54.850903 3.688602 -12.661216 -57.270361 -3.217476 -10.723331 0.492614 -4.931912 13.835562 1.581839 -21.733310 -6.366074 2.308230 -0.000004 0.000003 -0.000001 -10.188780 -19.236680 -18.393382 -21.058686 21.836784 13.874439 48.827916 -5.169243 2.757704 -0.000000 0.000008 0.000001 
-1.493344 1.927498 -7.944901 3.729088 7.181799 -0.391617 -8.006711 -20.433481 -4.824552 -4.057826 19.052138 9.981985 -1.916893 3.470826 8.590717 -3.391977 5.477012 -6.363663 2.945203 -6.575387 14.015813 7.776515 -10.225831 -36.576530 63.036226 -3.591147 38.070061 -8.316301 -30.785152 53.169645 -5.858208 -1.732658 -7.474721 -39.037871 -9.941106 47.151132 -77.384821 36.891597 -54.175179 3.919496 -12.159215 -57.231480 -3.257410 -10.904512 0.440620 -5.020791 14.182657 1.461244 -21.671166 -6.550143 2.335721 -0.000000 0.000002 0.000001 -10.262725 -19.137647 -18.417919 -21.319020 21.613089 13.722750 48.671252 -5.458258 2.802583 0.000001 0.000005 -0.000000 
